<?xml version="1.0" encoding="iso-8859-1"?>
<!-- Uploaded to: SVG Repo, www.svgrepo.com, Generator: SVG Repo Mixer Tools -->
<svg fill="#fff" height="800px" width="800px" version="1.1" id="Layer_1" xmlns="http://www.w3.org/2000/svg" xmlns:xlink="http://www.w3.org/1999/xlink" 
	 viewBox="0 0 500.529 500.529" xml:space="preserve">
<g>
	<g>
		<path d="M496.131,118.533c-12.8-44.8-49.067-71.467-76.8-81.067c-30.933-10.667-66.133-2.133-99.2,24.533
			c-33.067-26.667-69.333-36.267-100.267-25.6c-26.667,9.6-60.8,35.2-74.667,75.733c-22.4-9.6-43.733-10.667-64-3.2
			c-27.733,9.6-64,37.333-76.8,81.067c-8.533,28.8-8.533,75.733,36.267,132.267c19.2,24.533,49.067,59.733,73.6,87.467
			c48,54.4,56.533,58.667,65.067,58.667h4.267c9.6,0,20.267-5.333,99.2-98.133c22.4,23.467,28.8,25.6,35.2,25.6
			c1.067,0,4.267,0,4.267,0c8.533,0,16-4.267,64-57.6c24.533-27.733,54.4-62.933,73.6-87.467
			C504.664,194.266,504.664,147.333,496.131,118.533z M182.531,421.466c-22.4-22.4-75.733-82.133-110.933-124.8
			c-26.667-34.133-37.333-67.2-28.8-94.933c8.533-29.867,33.067-46.933,51.2-53.333c16-5.333,32,1.067,43.733,7.467
			c0,0,1.067,0,1.067,1.067c2.133,25.6,11.733,57.6,40.533,92.8c19.2,24.533,49.067,59.733,73.6,87.467
			c1.067,1.067,1.067,1.067,2.133,2.133C223.064,377.733,196.398,407.6,182.531,421.466z M428.931,225.2
			c-34.133,41.6-87.467,102.4-108.8,124.8c-22.4-21.333-74.667-81.067-108.8-124.8c-26.667-34.133-37.333-67.2-28.8-94.933
			c8.533-29.867,33.067-46.933,51.2-53.333c19.2-7.467,45.867,3.2,70.4,26.667l3.2,3.2c8.533,5.333,19.2,6.4,27.733-2.133
			c24.533-24.533,51.2-35.2,71.467-27.733c18.133,6.4,42.667,24.533,51.2,53.333C466.264,159.066,455.598,191.066,428.931,225.2z"/>
	</g>
</g>
</svg>