<?xml version="1.0" encoding="utf-8"?><!-- Uploaded to: SVG Repo, www.svgrepo.com, Generator: SVG Repo Mixer Tools -->
<svg width="800px" height="800px" viewBox="0 0 24 24" fill="none" xmlns="http://www.w3.org/2000/svg">
<path d="M14.9348 13.1725C15.3654 13.3446 15.5817 13.8402 15.3237 14.2255C15.0294 14.665 14.6493 15.0442 14.2032 15.3386C13.522 15.7881 12.7196 16.0185 11.9037 15.9988C11.0878 15.9792 10.2975 15.7104 9.6387 15.2287C9.20726 14.9131 8.8458 14.5161 8.573 14.0629C8.33384 13.6656 8.57376 13.181 9.01216 13.0299C9.45056 12.8788 9.91919 13.1274 10.2157 13.4839C10.3367 13.6294 10.4756 13.7603 10.63 13.8732C11.0122 14.1527 11.4708 14.3087 11.9441 14.3201C12.4175 14.3315 12.883 14.1978 13.2782 13.937C13.4379 13.8316 13.583 13.7076 13.7108 13.5681C14.0241 13.2262 14.5042 13.0005 14.9348 13.1725Z" fill="#fff"/>
<path d="M15 9V10M9 9V10M7 21H17C19.2091 21 21 19.2091 21 17V7C21 4.79086 19.2091 3 17 3H7C4.79086 3 3 4.79086 3 7V17C3 19.2091 4.79086 21 7 21Z" stroke="#fff" stroke-width="2" stroke-linecap="round"/>
</svg>