<?xml version="1.0" encoding="iso-8859-1"?>
<!-- Uploaded to: SVG Repo, www.svgrepo.com, Generator: SVG Repo Mixer Tools -->
<svg fill="#fff" height="800px" width="800px" version="1.1" id="Layer_1" xmlns="http://www.w3.org/2000/svg" xmlns:xlink="http://www.w3.org/1999/xlink" 
	 viewBox="0 0 512 512" xml:space="preserve">
<g>
	<g>
		<g>
			<path d="M426.667,234.667h-27.289l-14.072-42.227h105.351c11.782,0,21.333-9.551,21.333-21.333
				c0-11.782-9.551-21.333-21.333-21.333H369.48c-14.733-26.265-42.677-43.106-73.587-43.106h-101.12
				c-36.314,0-68.55,23.236-80.054,57.692l-23.43,70.308h-5.956C38.202,234.667,0,272.869,0,320s38.202,85.333,85.333,85.333
				h341.333C473.798,405.333,512,367.131,512,320S473.798,234.667,426.667,234.667z M155.194,177.859
				c5.688-17.037,21.627-28.526,39.58-28.526h101.12c17.952,0,33.891,11.489,39.583,28.538l18.927,56.796H136.263L155.194,177.859z
				 M426.667,362.667H85.333c-23.567,0-42.667-19.099-42.667-42.667s19.099-42.667,42.667-42.667h21.333H384h42.667
				c23.567,0,42.667,19.099,42.667,42.667S450.234,362.667,426.667,362.667z"/>
			<path d="M277.323,170.667h-49.621c-11.782,0-21.333,9.551-21.333,21.333c0,11.782,9.551,21.333,21.333,21.333h49.621
				c11.782,0,21.333-9.551,21.333-21.333C298.656,180.218,289.105,170.667,277.323,170.667z"/>
			<path d="M128,298.667c-11.776,0-21.333,9.557-21.333,21.333s9.557,21.333,21.333,21.333s21.333-9.557,21.333-21.333
				S139.776,298.667,128,298.667z"/>
			<path d="M256,298.667c-11.776,0-21.333,9.557-21.333,21.333s9.557,21.333,21.333,21.333s21.333-9.557,21.333-21.333
				S267.776,298.667,256,298.667z"/>
			<path d="M384,298.667c-11.776,0-21.333,9.557-21.333,21.333s9.557,21.333,21.333,21.333s21.333-9.557,21.333-21.333
				S395.776,298.667,384,298.667z"/>
		</g>
	</g>
</g>
</svg>